# xmcd CD database file
#
# Track frame offsets:
#	150
#	20320
#	46502
#	69014
#	102916
#	125098
#	145914
#	168353
#	186566
#	207716
#	241704
#
# Disc length: 3591 seconds
#
# Revision: 0
# Processed by: cddbd v1.5.1PL0 Copyright (c) Steve Scherf et al.
# Submitted via: CDex 1.51
#
DISCID=940e050b
DTITLE=Turning Point - Matador
DYEAR=2005
DGENRE=Jazz
TTITLE0=Lickety-Split
TTITLE1=Spain
TTITLE2=Gospel Brunch
TTITLE3=Turn Down The Night
TTITLE4=Quisiera Ser
TTITLE5=Matador
TTITLE6=Después De Mañana
TTITLE7=Rhapsody For Priapus
TTITLE8=Suburban Safari
TTITLE9=Soldier's Lullaby
TTITLE10=Here Today, Gone Tomorrow
EXTD=YEAR: 2005
EXTT0=
EXTT1=
EXTT2=
EXTT3=
EXTT4=
EXTT5=
EXTT6=
EXTT7=
EXTT8=
EXTT9=
EXTT10=
PLAYORDER=
